<svg id="svg" version="1.1" xmlns="http://www.w3.org/2000/svg" xmlns:xlink="http://www.w3.org/1999/xlink" width="400" height="400" viewBox="0, 0, 400,400"><g id="svgg"><path id="path0" d="M208.840 175.616 C 197.925 175.735,188.808 175.948,188.579 176.089 C 188.350 176.231,180.341 176.547,170.782 176.793 C 150.143 177.322,152.202 176.944,140.200 182.410 C 137.479 183.649,134.477 184.799,133.926 184.814 C 133.637 184.821,132.680 185.175,131.800 185.600 C 130.920 186.025,129.969 186.379,129.686 186.386 C 129.403 186.394,128.773 186.650,128.286 186.955 C 127.799 187.260,126.680 187.637,125.800 187.791 C 124.920 187.945,124.020 188.214,123.800 188.389 C 123.580 188.563,121.240 189.560,118.600 190.603 C 113.364 192.673,109.738 194.236,108.800 194.827 C 108.470 195.035,107.930 195.311,107.600 195.440 C 106.960 195.690,100.206 199.026,99.200 199.589 C 97.477 200.552,87.551 205.199,85.983 205.777 C 84.983 206.145,82.283 206.570,79.983 206.723 L 75.800 207.000 75.921 208.134 C 75.987 208.758,75.843 209.507,75.601 209.799 C 75.346 210.106,75.315 210.424,75.527 210.555 C 75.844 210.751,76.246 219.072,76.482 230.300 C 76.533 232.719,76.692 233.600,77.076 233.600 C 77.475 233.600,77.600 234.610,77.600 237.837 C 77.600 241.738,77.664 242.092,78.400 242.284 C 79.073 242.460,79.200 242.830,79.200 244.620 C 79.200 246.395,79.332 246.788,80.000 247.000 C 80.640 247.203,80.800 247.605,80.800 249.013 C 80.800 250.362,80.986 250.871,81.600 251.200 C 82.161 251.500,82.400 252.038,82.400 253.000 C 82.400 253.962,82.639 254.500,83.200 254.800 C 83.755 255.097,84.000 255.638,84.000 256.567 C 84.000 257.570,84.201 257.959,84.800 258.116 C 85.253 258.234,85.600 258.662,85.600 259.101 C 85.600 259.528,85.960 260.293,86.400 260.800 C 86.857 261.327,87.200 262.297,87.200 263.061 C 87.200 263.939,87.392 264.400,87.757 264.400 C 88.371 264.400,88.800 265.241,88.800 266.445 C 88.800 266.874,89.065 267.327,89.389 267.451 C 89.713 267.576,90.093 268.290,90.234 269.039 C 90.374 269.787,90.725 270.400,91.013 270.400 C 91.301 270.400,91.658 270.952,91.806 271.627 C 91.954 272.302,92.311 272.944,92.598 273.055 C 92.886 273.165,93.239 273.882,93.383 274.649 C 93.527 275.415,93.893 276.138,94.198 276.254 C 94.502 276.371,94.874 277.027,95.024 277.711 C 95.175 278.395,95.546 279.203,95.849 279.506 C 96.152 279.809,96.400 280.404,96.400 280.829 C 96.400 281.253,96.674 281.600,97.010 281.600 C 97.345 281.600,97.777 282.012,97.968 282.516 C 98.160 283.020,98.605 283.673,98.958 283.965 C 99.311 284.258,99.600 284.702,99.600 284.951 C 99.600 285.501,103.852 289.600,104.423 289.600 C 104.694 289.600,104.691 289.857,104.414 290.374 C 103.836 291.454,103.885 291.600,104.830 291.600 C 106.227 291.600,110.264 295.032,117.800 302.629 C 126.408 311.306,125.694 310.807,139.438 317.743 C 149.010 322.574,151.413 323.585,159.400 326.135 C 161.820 326.907,164.610 327.655,165.600 327.796 C 169.008 328.282,197.036 326.649,200.629 325.755 C 201.085 325.642,203.155 325.306,205.229 325.010 C 207.303 324.713,210.620 324.006,212.600 323.439 C 214.580 322.871,217.190 322.214,218.400 321.978 C 219.610 321.742,221.140 321.380,221.800 321.173 C 226.364 319.742,232.460 317.624,238.964 315.209 C 243.125 313.664,246.799 312.400,247.130 312.400 C 249.254 312.400,261.645 304.122,266.400 299.526 C 266.950 298.995,268.300 297.855,269.400 296.994 C 274.047 293.356,276.698 290.797,281.487 285.324 C 286.514 279.579,286.569 279.532,288.078 279.676 C 288.915 279.756,289.600 279.681,289.600 279.511 C 289.600 279.340,289.150 279.200,288.600 279.200 C 286.509 279.200,287.607 277.309,289.802 277.130 C 290.936 277.037,291.431 276.799,291.526 276.300 C 291.689 275.442,290.954 275.389,290.143 276.200 C 289.702 276.641,288.621 276.801,286.071 276.802 C 284.162 276.803,281.970 276.978,281.200 277.189 C 280.430 277.401,277.730 277.842,275.200 278.169 C 272.670 278.496,267.892 279.121,264.583 279.558 C 261.273 279.996,254.806 280.554,250.211 280.799 L 241.857 281.245 239.451 282.656 C 229.475 288.503,222.703 286.672,221.365 277.766 C 219.754 267.040,227.218 262.011,236.744 267.404 L 240.089 269.298 250.544 268.859 C 256.295 268.618,262.620 268.159,264.600 267.840 C 268.727 267.173,272.959 266.539,278.400 265.773 C 300.604 262.645,307.051 259.455,303.090 253.556 C 299.795 248.650,299.393 246.455,301.324 243.931 C 303.898 240.566,306.966 240.814,312.085 244.800 L 313.171 245.645 313.085 243.595 C 313.019 241.999,313.155 241.457,313.700 241.152 C 314.085 240.937,314.400 240.334,314.400 239.813 C 314.400 238.451,314.801 237.600,315.443 237.600 C 315.804 237.600,316.002 237.142,316.004 236.300 C 316.012 233.985,316.488 231.948,316.976 232.136 C 317.237 232.236,317.451 231.937,317.464 231.457 C 317.476 230.986,317.512 229.392,317.543 227.916 C 317.588 225.778,317.766 225.077,318.414 224.473 C 319.344 223.607,319.483 214.513,318.564 214.679 C 318.314 214.724,318.101 214.041,318.064 213.079 C 317.732 204.443,317.194 196.419,316.892 195.600 C 316.689 195.050,316.490 193.430,316.450 192.000 C 316.239 184.503,315.652 183.858,310.645 185.618 C 304.510 187.774,289.918 187.662,283.400 185.409 C 282.520 185.104,280.990 184.747,280.000 184.614 C 279.010 184.482,277.480 184.129,276.600 183.831 C 275.720 183.533,274.100 183.102,273.000 182.873 C 269.485 182.143,267.067 181.565,264.400 180.819 C 260.359 179.687,257.834 179.233,252.000 178.589 C 249.030 178.260,246.187 177.814,245.681 177.596 C 245.176 177.378,244.186 177.196,243.481 177.192 C 242.777 177.187,241.030 176.905,239.600 176.565 C 235.378 175.560,229.798 175.388,208.840 175.616 M255.094 214.839 C 266.394 217.440,275.966 230.649,270.673 236.339 C 266.858 240.441,261.780 239.537,258.307 234.137 C 256.266 230.964,253.141 228.800,250.598 228.800 C 249.247 228.800,242.821 230.342,241.340 231.022 C 240.646 231.340,239.836 231.606,239.540 231.614 C 239.243 231.621,238.280 231.975,237.400 232.400 C 236.520 232.825,235.574 233.179,235.299 233.186 C 235.023 233.194,234.125 233.560,233.304 234.000 C 232.484 234.440,231.571 234.800,231.276 234.800 C 230.982 234.800,229.708 235.785,228.446 236.989 C 223.943 241.283,219.694 241.413,216.587 237.351 C 215.120 235.433,214.834 230.710,216.100 229.310 C 216.485 228.885,216.805 228.371,216.812 228.169 C 216.832 227.534,218.955 225.450,220.816 224.237 C 221.797 223.598,223.050 222.774,223.600 222.407 C 224.150 222.039,225.320 221.547,226.200 221.312 C 227.080 221.078,229.240 220.302,231.000 219.587 C 237.151 217.087,237.954 216.800,238.794 216.800 C 239.259 216.800,240.178 216.521,240.837 216.181 C 241.495 215.841,244.321 215.324,247.117 215.034 C 249.913 214.743,252.422 214.482,252.694 214.453 C 252.966 214.424,254.046 214.597,255.094 214.839 M166.290 217.700 C 166.715 218.085,167.335 218.400,167.667 218.400 C 168.308 218.400,170.144 219.855,173.220 222.800 C 174.254 223.790,176.116 225.474,177.358 226.542 C 182.384 230.865,183.336 235.788,179.846 239.404 C 176.106 243.280,172.710 242.460,166.200 236.111 L 161.400 231.430 158.563 231.275 C 151.865 230.907,144.046 233.190,141.461 236.267 C 138.783 239.456,134.517 240.160,131.563 237.900 C 128.687 235.700,127.452 232.581,128.569 230.342 C 128.916 229.646,129.200 228.876,129.200 228.630 C 129.200 227.557,135.511 221.644,136.718 221.586 C 136.873 221.579,137.720 221.225,138.600 220.800 C 139.480 220.375,140.470 220.015,140.800 220.001 C 141.130 219.986,141.739 219.718,142.154 219.404 C 142.569 219.090,143.700 218.714,144.667 218.569 C 145.635 218.424,147.456 217.969,148.713 217.558 C 151.953 216.500,165.083 216.606,166.290 217.700 M315.097 248.350 C 314.964 248.861,314.960 249.173,315.090 249.043 C 315.220 248.913,315.613 249.030,315.963 249.303 C 316.501 249.723,316.531 249.707,316.154 249.200 C 315.908 248.870,315.625 248.335,315.524 248.010 C 315.399 247.608,315.263 247.716,315.097 248.350 M247.512 283.682 C 255.485 286.987,251.200 296.647,240.000 300.619 C 231.603 303.597,211.932 304.625,207.196 302.334 C 199.473 298.597,197.369 290.283,203.279 286.857 C 206.117 285.212,209.332 286.029,212.302 289.148 L 213.604 290.516 219.102 290.234 C 225.805 289.891,234.173 288.688,235.800 287.834 C 236.460 287.488,237.180 287.203,237.400 287.201 C 237.620 287.198,238.509 286.545,239.375 285.750 C 242.457 282.920,244.451 282.413,247.512 283.682 M344.493 398.800 C 344.493 399.570,344.575 399.885,344.676 399.500 C 344.776 399.115,344.776 398.485,344.676 398.100 C 344.575 397.715,344.493 398.030,344.493 398.800 " stroke="none" fill="#814c16" fill-rule="evenodd"></path><path id="path1" d="M190.600 68.275 C 189.940 68.371,189.209 68.697,188.975 68.998 C 188.651 69.417,186.885 69.577,181.516 69.673 C 175.492 69.782,174.371 69.901,173.709 70.500 C 173.075 71.075,172.173 71.200,168.672 71.200 C 164.840 71.200,164.356 71.281,163.907 72.000 C 163.484 72.678,162.974 72.800,160.558 72.800 C 158.314 72.800,157.492 72.970,156.691 73.600 C 155.945 74.187,155.068 74.400,153.399 74.400 C 151.462 74.400,151.094 74.518,150.916 75.200 C 150.747 75.846,150.370 76.000,148.957 76.000 C 147.640 76.000,147.083 76.198,146.707 76.800 C 146.351 77.370,145.774 77.600,144.704 77.600 C 143.467 77.600,143.200 77.742,143.200 78.400 C 143.200 79.067,142.933 79.200,141.600 79.200 C 140.444 79.200,140.000 79.367,140.000 79.800 C 140.000 80.214,139.584 80.400,138.654 80.400 C 137.914 80.400,136.879 80.737,136.354 81.148 C 135.829 81.559,134.803 82.026,134.073 82.186 C 133.343 82.345,132.649 82.728,132.530 83.038 C 132.412 83.347,131.898 83.600,131.390 83.600 C 130.050 83.600,129.200 84.005,129.200 84.643 C 129.200 84.965,128.793 85.200,128.233 85.200 C 126.852 85.200,126.000 85.598,126.000 86.243 C 126.000 86.549,125.640 86.800,125.200 86.800 C 124.667 86.800,124.400 87.067,124.400 87.600 C 124.400 88.219,124.133 88.400,123.223 88.400 C 122.544 88.400,121.824 88.707,121.523 89.126 C 121.235 89.526,120.685 89.970,120.300 90.114 C 119.915 90.257,119.600 90.651,119.600 90.987 C 119.600 91.333,119.252 91.600,118.800 91.600 C 118.267 91.600,118.000 91.867,118.000 92.400 C 118.000 92.865,117.733 93.200,117.363 93.200 C 117.012 93.200,116.631 93.560,116.516 94.000 C 116.401 94.440,116.052 94.800,115.741 94.800 C 115.430 94.800,115.071 95.070,114.945 95.400 C 114.818 95.730,114.458 96.000,114.145 96.000 C 113.831 96.000,113.459 96.315,113.318 96.700 C 113.176 97.085,112.822 97.544,112.530 97.720 C 112.239 97.896,112.000 98.289,112.000 98.593 C 112.000 98.897,111.640 99.260,111.200 99.400 C 110.760 99.540,110.400 99.912,110.400 100.227 C 110.400 100.542,110.113 100.800,109.763 100.800 C 109.412 100.800,109.031 101.160,108.916 101.600 C 108.801 102.040,108.441 102.400,108.116 102.400 C 107.791 102.400,107.435 102.743,107.326 103.163 C 107.216 103.583,106.783 104.016,106.363 104.126 C 105.943 104.235,105.600 104.612,105.600 104.963 C 105.600 105.313,105.240 105.960,104.800 106.400 C 104.360 106.840,104.000 107.560,104.000 108.000 C 104.000 108.533,103.733 108.800,103.200 108.800 C 102.667 108.800,102.400 109.067,102.400 109.600 C 102.400 110.133,102.133 110.400,101.600 110.400 C 101.067 110.400,100.800 110.667,100.800 111.200 C 100.800 111.644,100.533 112.000,100.200 112.000 C 99.870 112.000,99.600 112.173,99.600 112.384 C 99.600 112.596,99.262 113.091,98.850 113.484 C 98.437 113.878,97.962 114.650,97.794 115.200 C 97.626 115.750,96.884 116.773,96.144 117.473 C 95.187 118.379,94.800 119.100,94.800 119.973 C 94.800 120.933,94.626 121.200,94.000 121.200 C 93.483 121.200,93.200 121.467,93.200 121.953 C 93.200 122.370,92.843 122.800,92.400 122.916 C 91.787 123.076,91.600 123.462,91.600 124.563 C 91.600 125.733,91.452 126.000,90.800 126.000 C 90.356 126.000,90.000 126.267,90.000 126.600 C 90.000 126.930,89.640 127.560,89.200 128.000 C 88.760 128.440,88.400 129.148,88.400 129.573 C 88.400 129.998,88.040 130.460,87.600 130.600 C 87.012 130.787,86.800 131.205,86.800 132.180 C 86.800 133.170,86.597 133.560,86.000 133.716 C 85.394 133.875,85.200 134.262,85.200 135.316 C 85.200 136.370,85.006 136.757,84.400 136.916 C 83.939 137.037,83.600 137.462,83.600 137.920 C 83.600 138.357,83.353 138.809,83.051 138.925 C 82.748 139.041,82.380 139.781,82.232 140.568 C 82.085 141.356,81.814 142.000,81.630 142.000 C 81.447 142.000,81.061 142.585,80.772 143.300 C 80.483 144.015,80.011 144.744,79.723 144.920 C 79.436 145.096,79.200 145.923,79.200 146.758 C 79.200 147.768,78.932 148.518,78.400 149.000 C 77.873 149.477,77.600 150.232,77.600 151.215 C 77.600 152.370,77.420 152.754,76.800 152.916 C 76.139 153.089,76.000 153.462,76.000 155.066 C 76.000 156.574,75.821 157.119,75.200 157.507 C 74.582 157.893,74.400 158.440,74.400 159.907 C 74.400 161.374,74.218 161.921,73.600 162.307 C 72.993 162.686,72.800 163.240,72.800 164.603 C 72.800 165.867,72.563 166.637,72.000 167.200 C 71.394 167.806,71.200 168.533,71.200 170.200 C 71.200 171.867,71.006 172.594,70.400 173.200 C 69.153 174.447,69.153 199.714,70.400 200.493 C 71.021 200.881,71.200 201.426,71.200 202.934 C 71.200 204.485,71.348 204.914,71.939 205.068 C 72.601 205.241,72.705 205.886,72.937 211.254 C 73.319 220.083,74.163 221.039,74.311 212.809 C 74.442 205.512,74.174 205.918,79.099 205.549 C 84.502 205.144,88.071 203.897,97.200 199.227 C 97.530 199.058,98.970 198.338,100.400 197.628 C 101.830 196.918,103.270 196.170,103.600 195.967 C 103.930 195.764,104.650 195.407,105.200 195.174 C 105.750 194.940,107.640 194.062,109.400 193.221 C 113.987 191.031,115.459 190.400,115.981 190.400 C 116.234 190.400,117.107 190.062,117.921 189.648 C 120.345 188.416,122.116 187.666,123.600 187.243 C 124.370 187.023,126.260 186.369,127.800 185.788 C 129.340 185.208,131.320 184.494,132.200 184.202 C 135.571 183.082,142.061 180.350,145.662 178.535 C 146.246 178.241,146.968 178.000,147.268 178.000 C 147.567 178.000,148.529 177.612,149.406 177.137 C 150.828 176.367,151.905 176.240,159.400 175.962 C 164.020 175.790,171.220 175.468,175.400 175.245 C 189.539 174.492,238.293 174.539,240.402 175.308 C 241.393 175.670,244.107 176.146,246.432 176.366 C 248.757 176.586,251.131 176.945,251.706 177.164 C 252.282 177.383,254.159 177.684,255.877 177.833 C 257.594 177.982,259.720 178.333,260.600 178.612 C 261.480 178.891,263.098 179.245,264.195 179.399 C 265.292 179.552,266.642 179.907,267.195 180.187 C 267.748 180.467,269.100 180.818,270.200 180.967 C 271.300 181.116,273.010 181.497,274.000 181.815 C 276.760 182.699,280.761 183.663,283.208 184.031 C 284.422 184.214,286.042 184.621,286.808 184.935 C 289.969 186.231,305.558 186.015,309.197 184.624 C 311.619 183.698,316.400 183.290,316.400 184.009 C 316.400 184.297,316.526 184.408,316.679 184.254 C 316.833 184.101,317.186 184.386,317.465 184.887 C 317.932 185.728,317.973 185.650,317.986 183.900 C 317.998 182.271,318.114 182.000,318.800 182.000 C 319.317 182.000,319.600 181.733,319.600 181.247 C 319.600 180.830,319.957 180.400,320.400 180.284 C 320.840 180.169,321.200 179.809,321.200 179.484 C 321.200 179.159,321.560 178.799,322.000 178.684 C 322.440 178.569,322.800 178.207,322.800 177.880 C 322.800 177.553,323.060 177.186,323.378 177.064 C 323.696 176.942,324.081 176.158,324.235 175.321 C 324.388 174.484,324.758 173.445,325.057 173.011 C 325.397 172.517,325.600 171.092,325.600 169.200 C 325.600 166.673,325.731 166.066,326.400 165.493 C 327.152 164.849,327.200 164.313,327.200 156.566 C 327.200 148.662,327.167 148.317,326.400 148.116 C 325.773 147.952,325.600 147.570,325.600 146.353 C 325.600 145.304,325.422 144.800,325.051 144.800 C 324.720 144.800,324.401 144.165,324.246 143.200 C 324.081 142.165,323.780 141.600,323.395 141.600 C 323.068 141.600,322.800 141.313,322.800 140.963 C 322.800 140.612,322.457 140.235,322.038 140.126 C 321.549 139.998,321.182 139.429,321.016 138.542 C 320.873 137.781,320.496 137.058,320.178 136.936 C 319.860 136.814,319.600 136.417,319.600 136.053 C 319.600 135.690,319.240 135.168,318.800 134.893 C 318.360 134.618,318.000 134.041,318.000 133.611 C 318.000 133.180,317.640 132.635,317.200 132.400 C 316.760 132.165,316.400 131.620,316.400 131.189 C 316.400 130.759,316.040 130.182,315.600 129.907 C 315.160 129.632,314.800 129.074,314.800 128.666 C 314.800 128.259,314.440 127.831,314.000 127.716 C 313.557 127.600,313.200 127.170,313.200 126.753 C 313.200 126.267,312.917 126.000,312.400 126.000 C 311.748 126.000,311.600 125.733,311.600 124.563 C 311.600 123.462,311.413 123.076,310.800 122.916 C 310.357 122.800,310.000 122.370,310.000 121.953 C 310.000 121.467,309.717 121.200,309.200 121.200 C 308.667 121.200,308.400 120.933,308.400 120.400 C 308.400 119.956,308.133 119.600,307.800 119.600 C 307.470 119.600,307.200 119.313,307.200 118.963 C 307.200 118.612,306.850 118.234,306.423 118.122 C 305.965 118.002,305.538 117.430,305.385 116.732 C 305.242 116.080,304.872 115.449,304.562 115.330 C 304.253 115.212,304.000 114.786,304.000 114.384 C 304.000 113.983,303.640 113.540,303.200 113.400 C 302.760 113.260,302.400 112.932,302.400 112.669 C 302.400 112.407,302.040 111.968,301.600 111.693 C 301.135 111.403,300.800 110.760,300.800 110.159 C 300.800 109.462,300.540 109.057,300.000 108.916 C 299.557 108.800,299.200 108.370,299.200 107.953 C 299.200 107.467,298.917 107.200,298.400 107.200 C 297.889 107.200,297.600 106.933,297.600 106.462 C 297.600 106.056,297.240 105.398,296.800 105.000 C 296.360 104.602,296.000 103.956,296.000 103.565 C 296.000 103.174,295.659 102.746,295.243 102.614 C 294.827 102.482,294.394 102.019,294.281 101.587 C 294.167 101.154,293.788 100.800,293.437 100.800 C 293.087 100.800,292.800 100.608,292.800 100.374 C 292.800 99.856,288.898 96.000,288.373 96.000 C 288.168 96.000,288.000 95.730,288.000 95.400 C 288.000 95.070,287.742 94.800,287.427 94.800 C 287.112 94.800,286.740 94.440,286.600 94.000 C 286.460 93.560,285.998 93.200,285.573 93.200 C 285.148 93.200,284.800 92.949,284.800 92.643 C 284.800 92.031,283.959 91.600,282.767 91.600 C 282.267 91.600,282.000 91.322,282.000 90.800 C 282.000 90.267,281.733 90.000,281.200 90.000 C 280.748 90.000,280.400 89.733,280.400 89.387 C 280.400 89.051,280.099 88.659,279.731 88.518 C 279.362 88.377,278.732 87.932,278.331 87.531 C 277.929 87.129,277.150 86.800,276.600 86.800 C 275.867 86.800,275.600 86.587,275.600 86.000 C 275.600 85.467,275.333 85.200,274.800 85.200 C 274.360 85.200,274.000 84.949,274.000 84.643 C 274.000 83.998,273.148 83.600,271.767 83.600 C 271.188 83.600,270.800 83.367,270.800 83.018 C 270.800 82.667,270.231 82.330,269.368 82.168 C 268.581 82.020,267.843 81.657,267.729 81.360 C 267.616 81.064,266.923 80.709,266.189 80.572 C 265.456 80.434,264.759 80.069,264.640 79.761 C 264.516 79.436,263.868 79.200,263.101 79.200 C 262.273 79.200,261.522 78.901,261.093 78.400 C 260.596 77.820,259.913 77.600,258.604 77.600 C 257.067 77.600,256.800 77.482,256.800 76.800 C 256.800 76.098,256.533 76.000,254.614 76.000 C 252.838 76.000,252.348 75.850,252.000 75.200 C 251.636 74.520,251.162 74.400,248.833 74.400 C 246.430 74.400,246.068 74.302,245.884 73.600 C 245.693 72.869,245.338 72.800,241.771 72.800 C 239.624 72.800,237.985 72.682,238.130 72.537 C 238.948 71.718,237.307 71.200,233.895 71.200 C 230.921 71.200,230.198 71.077,229.777 70.500 C 229.349 69.913,228.470 69.778,224.351 69.665 C 220.337 69.554,219.347 69.407,218.951 68.865 C 218.479 68.218,194.425 67.718,190.600 68.275 M264.800 107.062 C 266.230 107.727,270.777 111.904,270.792 112.566 C 270.796 112.768,271.062 113.218,271.381 113.566 C 271.701 113.915,272.338 114.612,272.797 115.116 C 273.256 115.620,273.809 116.430,274.025 116.916 C 274.242 117.402,274.855 118.520,275.389 119.400 C 280.426 127.709,282.840 138.159,280.887 143.200 C 280.674 143.750,280.366 145.175,280.203 146.367 C 279.925 148.400,278.813 151.023,277.553 152.622 C 276.394 154.091,273.396 156.800,272.929 156.800 C 272.660 156.800,272.271 157.101,272.065 157.470 C 271.249 158.927,254.235 158.989,252.501 157.540 C 252.116 157.218,251.305 156.744,250.700 156.486 C 250.095 156.228,249.600 155.833,249.600 155.609 C 249.600 155.384,249.355 155.200,249.056 155.200 C 248.456 155.200,245.460 152.405,244.200 150.670 C 243.760 150.064,243.107 149.261,242.750 148.884 C 242.392 148.508,241.966 147.750,241.802 147.200 C 241.639 146.650,241.275 145.930,240.994 145.600 C 240.467 144.981,239.838 142.154,239.418 138.518 C 239.186 136.508,240.370 129.169,241.174 127.635 C 241.357 127.286,241.641 126.191,241.805 125.202 C 241.969 124.213,242.440 122.776,242.852 122.008 C 243.263 121.240,243.600 120.377,243.600 120.090 C 243.600 118.353,255.170 106.660,257.507 106.035 C 258.899 105.662,263.047 106.246,264.800 107.062 M318.000 193.314 C 318.000 195.044,318.171 196.400,318.389 196.400 C 318.602 196.400,318.960 196.985,319.184 197.700 C 319.506 198.730,319.560 198.223,319.443 195.262 C 319.240 190.101,318.000 188.427,318.000 193.314 M245.200 216.393 C 240.883 217.322,234.908 219.174,232.971 220.184 C 232.327 220.520,231.523 220.796,231.185 220.798 C 230.846 220.799,229.863 221.160,229.000 221.600 C 228.137 222.040,227.030 222.400,226.539 222.400 C 226.049 222.400,225.547 222.563,225.424 222.762 C 225.301 222.961,224.165 223.703,222.900 224.411 C 218.995 226.596,216.400 230.189,216.400 233.410 C 216.400 234.929,217.807 237.600,218.606 237.600 C 218.896 237.600,219.199 237.798,219.280 238.039 C 219.456 238.569,222.772 238.994,224.110 238.658 C 224.637 238.526,225.953 237.540,227.034 236.467 C 228.287 235.223,229.942 234.119,231.600 233.420 C 233.030 232.818,234.541 232.144,234.958 231.923 C 236.063 231.337,239.887 230.022,242.227 229.424 C 243.342 229.139,244.635 228.702,245.101 228.453 C 246.700 227.597,253.110 227.881,254.753 228.880 C 256.657 230.038,258.400 231.672,258.400 232.299 C 258.400 232.574,258.535 232.808,258.700 232.819 C 258.865 232.829,259.630 233.733,260.400 234.827 C 261.946 237.024,262.792 237.410,265.907 237.342 C 270.799 237.234,272.802 230.987,269.283 226.813 C 268.998 226.476,267.953 225.165,266.960 223.899 C 265.203 221.659,262.062 219.313,257.803 217.057 C 255.711 215.950,248.924 215.592,245.200 216.393 M154.600 217.839 C 148.150 218.744,143.100 220.149,137.600 222.567 C 129.543 226.111,127.096 235.758,133.800 237.543 C 136.321 238.214,138.070 237.591,140.824 235.042 C 142.156 233.809,143.467 232.800,143.738 232.800 C 144.009 232.800,144.906 232.456,145.730 232.035 C 146.555 231.615,148.165 231.142,149.307 230.985 C 150.449 230.828,152.085 230.452,152.942 230.150 C 153.799 229.847,156.015 229.600,157.866 229.600 L 161.232 229.600 164.116 232.244 C 165.702 233.699,168.226 236.149,169.725 237.691 L 172.449 240.493 174.775 240.324 C 176.185 240.222,177.354 239.903,177.743 239.514 C 178.097 239.160,178.532 238.810,178.710 238.736 C 179.357 238.465,180.800 235.681,180.800 234.703 C 180.800 232.349,178.982 229.477,175.746 226.719 C 174.016 225.244,171.931 223.309,171.112 222.419 C 170.294 221.528,169.479 220.800,169.301 220.800 C 169.124 220.800,168.533 220.486,167.989 220.103 C 165.436 218.302,159.024 217.218,154.600 217.839 M74.552 228.800 C 74.592 232.601,74.704 233.400,75.200 233.400 C 75.896 233.400,76.116 230.772,75.457 230.332 C 75.237 230.184,74.932 228.744,74.780 227.132 C 74.535 224.536,74.509 224.727,74.552 228.800 M319.270 228.451 C 319.231 228.809,318.930 229.326,318.600 229.600 C 317.900 230.181,317.807 231.434,318.435 231.822 C 319.210 232.301,319.655 231.349,319.496 229.554 C 319.410 228.589,319.308 228.093,319.270 228.451 M317.670 234.329 C 317.631 234.839,317.330 235.527,317.000 235.857 C 316.219 236.638,316.227 238.000,317.013 238.000 C 317.841 238.000,318.080 237.226,317.895 235.146 C 317.810 234.186,317.708 233.818,317.670 234.329 M76.006 239.313 C 76.000 240.724,76.822 241.711,77.467 241.067 C 77.705 240.828,77.588 240.525,76.590 238.800 L 76.012 237.800 76.006 239.313 M315.300 239.865 C 314.418 240.221,314.693 241.553,315.600 241.316 C 316.043 241.200,316.400 240.770,316.400 240.353 C 316.400 239.590,316.201 239.501,315.300 239.865 M313.792 243.469 C 313.079 244.557,313.301 245.567,314.329 245.910 C 315.054 246.151,314.887 245.156,314.100 244.543 C 313.433 244.024,313.433 244.010,314.100 244.242 C 314.650 244.433,314.800 244.262,314.800 243.443 C 314.800 242.135,314.663 242.138,313.792 243.469 M77.600 245.148 C 77.600 246.170,78.886 247.542,79.137 246.788 C 79.232 246.503,79.018 246.056,78.661 245.795 C 78.304 245.534,78.112 245.222,78.233 245.101 C 78.354 244.979,78.261 244.761,78.027 244.616 C 77.779 244.463,77.600 244.687,77.600 245.148 M79.200 249.691 C 79.200 250.420,79.909 251.024,80.303 250.631 C 80.440 250.493,80.248 250.077,79.876 249.705 C 79.253 249.081,79.200 249.080,79.200 249.691 M316.473 250.700 C 316.543 251.305,316.813 251.759,317.073 251.709 C 317.702 251.588,317.584 258.851,316.944 259.639 C 316.086 260.695,316.356 262.564,317.250 261.755 C 318.621 260.514,318.202 249.600,316.783 249.600 C 316.543 249.600,316.404 250.095,316.473 250.700 M80.400 252.930 C 80.400 253.239,80.749 253.936,81.175 254.478 C 81.602 255.020,82.069 255.937,82.214 256.515 C 82.581 257.974,83.600 258.808,83.600 257.649 C 83.600 257.182,83.434 256.800,83.231 256.800 C 83.028 256.800,82.644 256.125,82.378 255.300 C 81.852 253.669,80.400 251.930,80.400 252.930 M83.646 259.467 C 83.580 260.708,83.997 261.600,84.643 261.600 C 84.949 261.600,85.200 261.240,85.200 260.800 C 85.200 260.360,84.943 260.000,84.629 260.000 C 84.315 260.000,83.976 259.685,83.876 259.300 C 83.733 258.754,83.683 258.791,83.646 259.467 M85.246 262.667 C 85.180 263.908,85.597 264.800,86.243 264.800 C 86.549 264.800,86.800 264.440,86.800 264.000 C 86.800 263.560,86.543 263.200,86.229 263.200 C 85.915 263.200,85.576 262.885,85.476 262.500 C 85.333 261.954,85.283 261.991,85.246 262.667 M316.000 264.333 C 316.000 264.590,315.730 264.800,315.400 264.800 C 315.070 264.800,314.800 265.070,314.800 265.400 C 314.800 265.730,314.974 266.000,315.186 266.000 C 315.671 266.000,316.546 264.412,316.232 264.099 C 316.105 263.971,316.000 264.077,316.000 264.333 M86.800 266.751 C 86.800 267.232,87.078 267.732,87.417 267.862 C 88.397 268.238,88.472 267.806,87.603 266.803 L 86.800 265.878 86.800 266.751 M314.168 266.940 C 314.029 267.301,313.755 267.496,313.558 267.374 C 313.361 267.252,313.200 267.343,313.200 267.576 C 313.200 268.234,314.396 268.075,314.662 267.383 C 314.792 267.043,314.791 266.657,314.659 266.525 C 314.527 266.393,314.306 266.580,314.168 266.940 M312.800 268.733 C 312.800 268.990,312.524 269.200,312.187 269.200 C 311.851 269.200,311.472 269.469,311.346 269.798 C 311.219 270.126,310.967 270.304,310.786 270.191 C 310.426 269.969,309.804 270.738,310.103 271.036 C 310.452 271.385,311.600 270.711,311.600 270.157 C 311.600 269.851,311.859 269.600,312.176 269.600 C 312.829 269.600,313.404 268.871,313.040 268.507 C 312.908 268.375,312.800 268.477,312.800 268.733 M88.432 269.700 C 88.407 270.544,88.586 270.800,89.200 270.800 C 89.644 270.800,90.000 270.533,90.000 270.200 C 90.000 269.870,89.745 269.600,89.433 269.600 C 89.122 269.600,88.776 269.375,88.665 269.100 C 88.554 268.825,88.449 269.095,88.432 269.700 M308.400 271.800 C 308.400 272.130,308.100 272.400,307.733 272.400 C 307.367 272.400,307.187 272.520,307.334 272.667 C 307.652 272.986,309.600 272.010,309.600 271.532 C 309.600 271.350,309.330 271.200,309.000 271.200 C 308.670 271.200,308.400 271.470,308.400 271.800 M90.032 272.653 C 90.008 273.586,90.205 273.960,90.800 274.116 C 91.720 274.357,91.921 273.429,91.059 272.920 C 90.761 272.744,90.415 272.330,90.290 272.000 C 90.165 271.670,90.049 271.964,90.032 272.653 M305.200 273.400 C 305.200 273.749,304.837 274.000,304.333 274.000 C 303.857 274.000,303.568 274.102,303.692 274.226 C 303.817 274.350,304.567 274.330,305.359 274.181 C 306.885 273.895,307.393 272.800,306.000 272.800 C 305.556 272.800,305.200 273.067,305.200 273.400 M300.084 275.015 C 299.649 275.509,299.719 275.600,300.535 275.600 C 301.067 275.600,301.726 275.330,302.000 275.000 C 302.690 274.169,300.817 274.184,300.084 275.015 M91.676 276.127 C 91.744 276.603,92.115 277.052,92.500 277.125 C 93.531 277.322,93.413 275.749,92.376 275.478 C 91.710 275.304,91.576 275.428,91.676 276.127 M293.893 276.400 C 293.236 277.167,293.246 277.200,294.124 277.200 C 295.030 277.200,296.000 276.538,296.000 275.920 C 296.000 275.289,294.564 275.616,293.893 276.400 M289.515 278.131 C 289.363 278.926,289.474 279.037,290.269 278.885 C 290.851 278.773,291.200 278.425,291.200 277.953 C 291.200 276.825,289.735 276.980,289.515 278.131 M93.200 279.237 C 93.200 279.738,93.521 280.159,94.000 280.284 C 94.443 280.400,94.800 280.830,94.800 281.247 C 94.800 281.673,95.080 282.000,95.446 282.000 C 96.041 282.000,96.041 281.922,95.446 281.014 C 95.091 280.472,94.800 279.771,94.800 279.457 C 94.800 279.143,94.515 278.776,94.167 278.643 C 93.246 278.289,93.200 278.318,93.200 279.237 M290.800 279.600 C 291.130 279.813,291.220 279.993,291.000 280.000 C 290.780 280.007,290.870 280.187,291.200 280.400 C 292.193 281.042,292.435 280.850,291.707 280.000 C 291.330 279.560,290.837 279.203,290.611 279.206 C 290.385 279.209,290.470 279.387,290.800 279.600 M294.400 283.013 C 294.400 283.336,294.670 283.600,295.000 283.600 C 295.330 283.600,295.600 283.439,295.600 283.243 C 295.600 283.046,295.330 282.782,295.000 282.655 C 294.635 282.515,294.400 282.655,294.400 283.013 M96.205 283.614 C 96.355 284.090,96.821 284.821,97.239 285.239 C 97.658 285.658,98.000 286.180,98.000 286.400 C 98.000 286.620,98.249 286.800,98.553 286.800 C 98.858 286.800,99.201 287.160,99.316 287.600 C 99.431 288.040,99.812 288.400,100.163 288.400 C 100.513 288.400,100.800 288.659,100.800 288.976 C 100.800 289.293,100.980 289.664,101.200 289.800 C 102.144 290.383,101.476 289.134,99.994 287.545 C 99.111 286.598,98.177 285.345,97.918 284.760 C 97.288 283.336,95.801 282.341,96.205 283.614 M296.000 284.400 C 296.000 284.917,296.267 285.200,296.753 285.200 C 297.170 285.200,297.600 285.557,297.716 286.000 C 297.831 286.440,298.212 286.800,298.563 286.800 C 298.933 286.800,299.200 287.135,299.200 287.600 C 299.200 288.129,299.467 288.400,299.987 288.400 C 300.875 288.400,300.715 287.407,299.769 287.043 C 299.456 286.923,299.200 286.549,299.200 286.213 C 299.200 285.876,299.019 285.600,298.797 285.600 C 298.576 285.600,298.003 285.150,297.525 284.600 C 296.475 283.392,296.000 283.330,296.000 284.400 M243.304 284.781 C 242.591 284.955,241.434 285.659,240.732 286.344 C 240.031 287.030,239.084 287.705,238.628 287.843 C 238.173 287.981,237.530 288.319,237.200 288.593 C 235.355 290.127,230.871 290.844,221.660 291.077 L 212.600 291.307 211.098 289.668 C 208.049 286.344,204.002 286.566,201.891 290.174 L 200.737 292.147 201.401 294.260 C 203.151 299.822,209.362 303.184,216.800 302.594 C 236.518 301.030,241.825 299.794,246.400 295.702 C 246.730 295.407,247.630 294.622,248.400 293.958 C 249.763 292.782,249.800 292.672,249.800 289.820 C 249.800 285.548,247.493 283.759,243.304 284.781 M300.800 289.353 C 300.800 289.658,301.157 290.000,301.593 290.114 C 302.268 290.290,302.325 290.208,301.979 289.561 C 301.505 288.675,300.800 288.551,300.800 289.353 M99.716 292.400 C 99.601 292.840,99.180 293.200,98.780 293.200 C 98.381 293.200,97.940 293.560,97.800 294.000 C 97.660 294.440,97.378 294.800,97.173 294.800 C 96.968 294.800,96.422 295.178,95.961 295.639 L 95.121 296.479 96.061 296.187 C 96.577 296.027,97.144 295.649,97.320 295.348 C 97.496 295.046,97.991 294.800,98.420 294.800 C 98.854 294.800,99.200 294.528,99.200 294.187 C 99.200 293.851,99.515 293.459,99.900 293.317 C 101.167 292.849,101.649 291.600,100.563 291.600 C 100.212 291.600,99.831 291.960,99.716 292.400 M306.400 295.342 C 306.400 295.704,306.580 296.000,306.800 296.000 C 307.020 296.000,307.200 296.360,307.200 296.800 C 307.200 297.244,307.467 297.600,307.800 297.600 C 308.671 297.600,308.538 296.991,307.400 295.762 C 306.642 294.944,306.400 294.843,306.400 295.342 M92.222 298.542 C 91.704 299.060,90.992 299.594,90.640 299.729 C 89.757 300.068,89.835 300.800,90.753 300.800 C 91.170 300.800,91.600 300.443,91.716 300.000 C 91.831 299.560,92.212 299.200,92.563 299.200 C 92.913 299.200,93.200 298.945,93.200 298.633 C 93.200 298.322,93.425 297.976,93.700 297.865 C 94.088 297.708,94.084 297.656,93.682 297.632 C 93.397 297.614,92.740 298.024,92.222 298.542 M308.400 298.524 C 308.400 298.844,308.770 299.204,309.223 299.322 C 309.837 299.483,310.014 299.368,309.919 298.873 C 309.758 298.036,308.400 297.724,308.400 298.524 M88.643 301.833 C 88.298 302.731,88.312 302.748,89.200 302.516 C 89.640 302.401,90.000 302.058,90.000 301.753 C 90.000 300.992,88.942 301.054,88.643 301.833 M313.268 304.659 C 313.346 305.062,313.738 305.454,314.141 305.532 C 314.669 305.633,314.833 305.469,314.732 304.941 C 314.654 304.538,314.262 304.146,313.859 304.068 C 313.331 303.967,313.167 304.131,313.268 304.659 M316.894 309.324 C 317.275 309.629,317.470 309.996,317.327 310.140 C 317.184 310.283,317.290 310.400,317.563 310.400 C 318.376 310.400,317.858 309.019,316.995 308.889 C 316.253 308.776,316.246 308.805,316.894 309.324 M80.800 310.997 C 80.800 311.325,80.440 311.818,80.000 312.093 C 79.058 312.681,78.944 313.467,79.800 313.467 C 80.130 313.467,80.400 313.158,80.400 312.780 C 80.400 312.402,80.730 312.007,81.133 311.902 C 81.971 311.682,82.142 310.400,81.333 310.400 C 81.040 310.400,80.800 310.668,80.800 310.997 M319.600 314.267 C 319.600 314.633,319.718 314.815,319.863 314.670 C 320.008 314.525,320.354 314.596,320.632 314.826 C 321.018 315.147,321.087 315.053,320.922 314.423 C 320.665 313.440,319.600 313.315,319.600 314.267 M76.500 316.665 C 76.225 316.776,76.000 317.054,76.000 317.282 C 76.000 317.555,76.185 317.545,76.537 317.252 C 76.832 317.007,77.192 316.925,77.337 317.070 C 77.482 317.215,77.600 317.123,77.600 316.867 C 77.600 316.378,77.333 316.329,76.500 316.665 M321.708 316.801 C 322.098 317.048,322.320 317.406,322.202 317.597 C 322.084 317.788,322.170 318.058,322.393 318.196 C 322.617 318.334,322.800 318.827,322.800 319.290 C 322.800 319.754,322.918 320.015,323.063 319.870 C 323.208 319.725,323.572 319.811,323.872 320.060 C 324.554 320.626,324.150 319.242,323.444 318.591 C 323.200 318.366,322.807 317.836,322.571 317.415 C 322.336 316.993,321.886 316.581,321.571 316.501 C 321.249 316.418,321.309 316.549,321.708 316.801 M75.029 318.629 C 74.166 319.492,74.241 319.967,75.200 319.716 C 75.643 319.600,76.000 319.170,76.000 318.753 C 76.000 317.837,75.841 317.816,75.029 318.629 M324.299 321.786 C 324.406 322.344,324.742 322.800,325.047 322.800 C 325.816 322.800,325.737 322.248,324.853 321.448 C 324.140 320.803,324.114 320.818,324.299 321.786 M72.800 321.904 C 72.800 322.291,72.440 322.832,72.000 323.107 C 71.033 323.711,70.892 325.004,71.833 324.643 C 72.181 324.509,72.541 324.400,72.633 324.400 C 72.725 324.400,72.800 324.097,72.800 323.726 C 72.800 323.355,73.191 322.635,73.670 322.126 L 74.539 321.200 73.670 321.200 C 73.106 321.200,72.800 321.448,72.800 321.904 M325.668 325.059 C 325.746 325.462,326.138 325.854,326.541 325.932 C 327.069 326.033,327.233 325.869,327.132 325.341 C 327.054 324.938,326.662 324.546,326.259 324.468 C 325.731 324.367,325.567 324.531,325.668 325.059 M69.867 326.267 C 69.316 326.817,69.629 327.600,70.400 327.600 C 70.933 327.600,71.200 327.333,71.200 326.800 C 71.200 326.029,70.417 325.716,69.867 326.267 M327.200 327.951 C 327.200 328.455,328.374 329.359,328.659 329.074 C 329.069 328.665,328.457 327.600,327.813 327.600 C 327.476 327.600,327.200 327.758,327.200 327.951 M68.000 330.049 C 68.000 330.714,68.116 330.801,68.537 330.452 C 68.832 330.207,69.192 330.125,69.337 330.270 C 69.482 330.415,69.600 330.233,69.600 329.867 C 69.600 329.467,69.280 329.200,68.800 329.200 C 68.251 329.200,68.000 329.467,68.000 330.049 M328.800 330.823 C 328.800 331.015,329.160 331.365,329.600 331.600 C 330.225 331.935,330.400 331.904,330.400 331.461 C 330.400 331.149,330.040 330.799,329.600 330.684 C 329.160 330.569,328.800 330.632,328.800 330.823 M67.082 332.575 C 66.030 333.628,66.181 334.635,67.243 333.646 C 67.707 333.213,68.014 332.642,67.925 332.376 C 67.812 332.037,67.561 332.096,67.082 332.575 M330.996 334.442 C 331.433 334.969,331.838 335.475,331.896 335.567 C 331.953 335.658,332.000 335.440,332.000 335.081 C 332.000 334.722,331.595 334.216,331.100 333.956 L 330.200 333.484 330.996 334.442 M65.326 335.900 C 65.189 336.285,65.014 336.718,64.938 336.863 C 64.861 337.007,65.159 337.031,65.599 336.916 C 66.043 336.800,66.400 336.370,66.400 335.953 C 66.400 335.005,65.658 334.968,65.326 335.900 M64.150 338.706 C 63.535 339.108,62.954 341.799,63.564 341.422 C 63.811 341.270,63.909 340.977,63.783 340.772 C 63.656 340.568,63.833 340.400,64.176 340.400 C 64.575 340.400,64.800 340.039,64.800 339.400 C 64.800 338.296,64.792 338.287,64.150 338.706 M333.708 342.372 C 333.740 342.797,333.898 343.063,334.058 342.964 C 334.219 342.864,334.536 343.102,334.763 343.492 C 335.313 344.436,335.334 343.398,334.786 342.374 C 334.253 341.378,333.633 341.377,333.708 342.372 M62.473 342.887 C 62.213 343.147,62.000 343.804,62.000 344.347 C 62.000 345.341,62.390 345.334,62.541 344.337 C 62.586 344.041,62.770 343.563,62.951 343.273 C 63.394 342.564,63.063 342.297,62.473 342.887 M335.200 346.610 C 335.200 346.960,335.380 347.136,335.600 347.000 C 335.820 346.864,336.000 347.023,336.000 347.353 C 336.000 347.683,336.180 348.064,336.400 348.200 C 336.620 348.336,336.800 348.083,336.800 347.638 C 336.800 347.192,336.440 346.635,336.000 346.400 C 335.356 346.055,335.200 346.096,335.200 346.610 M60.880 346.880 C 59.948 347.812,60.254 349.456,61.200 348.600 C 61.640 348.202,62.000 347.544,62.000 347.138 C 62.000 346.288,61.571 346.189,60.880 346.880 M59.043 351.833 C 58.447 353.385,58.732 354.186,59.600 353.400 C 60.518 352.569,60.669 351.200,59.843 351.200 C 59.536 351.200,59.176 351.485,59.043 351.833 M336.800 352.013 C 336.800 352.459,337.069 352.928,337.398 353.054 C 337.726 353.181,337.896 353.445,337.774 353.642 C 337.652 353.839,337.747 354.000,337.984 354.000 C 338.374 354.000,338.201 352.355,337.721 351.500 C 337.383 350.897,336.800 351.222,336.800 352.013 M57.467 357.467 C 57.126 357.807,57.117 359.200,57.456 359.200 C 57.766 359.200,58.770 357.919,58.787 357.500 C 58.803 357.128,57.830 357.104,57.467 357.467 M338.570 357.878 C 338.625 358.251,338.879 358.626,339.135 358.712 C 339.391 358.797,339.614 359.167,339.632 359.533 C 339.649 359.900,339.745 360.002,339.845 359.761 C 340.088 359.173,339.318 357.200,338.845 357.200 C 338.639 357.200,338.516 357.505,338.570 357.878 M56.041 363.751 C 55.767 364.081,55.600 364.853,55.671 365.465 L 55.800 366.578 56.515 365.480 C 57.361 364.182,56.944 362.662,56.041 363.751 M340.000 364.351 C 340.000 364.764,340.268 365.324,340.596 365.596 C 340.923 365.868,341.093 366.250,340.972 366.445 C 340.851 366.640,340.958 366.800,341.208 366.800 C 341.628 366.800,341.431 364.752,340.929 363.900 C 340.589 363.322,340.000 363.607,340.000 364.351 M54.480 371.680 C 53.546 372.614,53.854 375.717,54.800 374.907 C 55.338 374.447,55.600 373.727,55.600 372.711 C 55.600 371.141,55.298 370.862,54.480 371.680 M341.600 372.534 C 341.600 373.811,341.978 374.800,342.467 374.800 C 343.030 374.800,342.685 371.890,342.100 371.698 C 341.789 371.596,341.600 371.913,341.600 372.534 M342.865 383.742 C 342.917 384.515,343.104 385.059,343.280 384.951 C 343.614 384.744,343.642 384.818,343.797 386.313 C 344.019 388.443,344.433 387.559,344.321 385.192 C 344.222 383.086,344.068 382.583,343.485 382.472 C 342.895 382.359,342.787 382.581,342.865 383.742 M53.203 386.800 C 52.752 387.555,52.587 389.320,52.531 394.000 C 52.473 398.776,52.540 399.741,52.823 398.200 C 53.025 397.100,53.092 395.660,52.971 395.000 C 52.818 394.161,52.867 393.968,53.136 394.359 C 53.582 395.008,54.153 390.024,53.934 387.400 L 53.800 385.800 53.203 386.800 M344.654 397.113 C 344.543 397.292,344.599 397.675,344.777 397.963 C 344.956 398.252,345.013 398.829,344.904 399.244 C 344.796 399.660,344.908 400.000,345.153 400.000 C 345.691 400.000,345.757 397.344,345.228 397.017 C 345.023 396.891,344.765 396.933,344.654 397.113 " stroke="none" fill="#050404" fill-rule="evenodd"></path><path id="path2" d="M303.400 242.162 C 301.496 243.005,300.193 245.082,300.239 247.200 C 300.276 248.942,300.849 250.219,303.090 253.556 C 307.051 259.455,300.604 262.645,278.400 265.773 C 272.959 266.539,268.727 267.173,264.600 267.840 C 262.620 268.159,256.295 268.618,250.544 268.859 L 240.089 269.298 236.744 267.404 C 227.218 262.011,219.754 267.040,221.365 277.766 C 222.703 286.672,229.475 288.503,239.451 282.656 L 241.857 281.245 250.211 280.799 C 254.806 280.554,261.273 279.996,264.583 279.558 C 267.892 279.121,272.670 278.496,275.200 278.169 C 277.730 277.842,280.430 277.401,281.200 277.189 C 281.970 276.978,284.162 276.803,286.071 276.802 C 288.621 276.801,289.702 276.641,290.143 276.200 C 290.583 275.760,291.657 275.600,294.171 275.600 C 296.881 275.600,297.600 275.480,297.600 275.027 C 297.600 274.307,298.782 273.920,300.709 274.009 C 302.936 274.111,303.200 274.051,303.200 273.443 C 303.200 272.773,304.060 272.400,305.603 272.400 C 306.369 272.400,306.785 272.171,306.876 271.701 C 306.950 271.316,307.278 270.984,307.605 270.962 C 309.353 270.845,309.600 270.751,309.600 270.200 C 309.600 269.864,309.957 269.600,310.410 269.600 C 310.906 269.600,311.367 269.212,311.600 268.600 C 311.809 268.050,312.255 267.600,312.590 267.600 C 312.933 267.600,313.200 267.250,313.200 266.800 C 313.200 266.267,313.467 266.000,314.000 266.000 C 314.684 266.000,314.800 265.733,314.800 264.153 C 314.800 262.504,314.885 262.329,315.600 262.516 C 316.376 262.719,316.400 262.528,316.400 256.163 C 316.400 249.867,316.367 249.600,315.600 249.600 C 314.952 249.600,314.800 249.333,314.800 248.200 C 314.800 247.067,314.648 246.800,314.000 246.800 C 313.560 246.800,313.200 246.552,313.200 246.249 C 313.200 245.709,309.855 242.941,308.126 242.050 C 306.971 241.455,304.887 241.504,303.400 242.162 M281.457 285.359 C 276.696 290.799,274.043 293.359,269.400 296.994 C 268.300 297.855,266.950 298.995,266.400 299.526 C 261.645 304.122,249.254 312.400,247.130 312.400 C 246.799 312.400,243.125 313.664,238.964 315.209 C 232.460 317.624,226.364 319.742,221.800 321.173 C 221.140 321.380,219.610 321.742,218.400 321.978 C 217.190 322.214,214.580 322.871,212.600 323.439 C 210.620 324.006,207.303 324.713,205.229 325.010 C 203.155 325.306,201.085 325.642,200.629 325.755 C 197.036 326.649,169.008 328.282,165.600 327.796 C 164.610 327.655,161.820 326.907,159.400 326.135 C 151.413 323.585,149.010 322.574,139.438 317.743 C 125.694 310.807,126.408 311.306,117.800 302.629 C 108.966 293.724,106.314 291.600,104.030 291.600 C 102.703 291.600,102.400 291.739,102.400 292.350 C 102.400 292.863,102.021 293.176,101.200 293.340 C 100.496 293.481,100.000 293.832,100.000 294.190 C 100.000 294.566,99.634 294.800,99.047 294.800 C 98.430 294.800,98.019 295.082,97.884 295.600 C 97.769 296.040,97.409 296.400,97.084 296.400 C 96.759 296.400,96.399 296.760,96.284 297.200 C 96.169 297.640,95.788 298.000,95.437 298.000 C 95.087 298.000,94.800 298.250,94.800 298.557 C 94.800 298.863,94.315 299.235,93.721 299.384 C 92.638 299.656,90.000 302.114,90.000 302.852 C 90.000 303.069,89.832 303.143,89.626 303.016 C 89.420 302.889,88.809 303.227,88.268 303.768 C 87.727 304.309,87.147 304.627,86.979 304.476 C 86.810 304.324,86.782 304.506,86.916 304.880 C 87.080 305.337,86.903 305.640,86.374 305.808 C 85.942 305.945,85.692 306.226,85.820 306.432 C 86.118 306.915,84.994 308.051,84.583 307.681 C 84.412 307.526,84.402 307.626,84.561 307.903 C 84.730 308.197,84.591 308.505,84.225 308.646 C 83.881 308.778,83.600 309.226,83.600 309.643 C 83.600 310.059,83.330 310.400,83.000 310.400 C 82.667 310.400,82.400 310.756,82.400 311.200 C 82.400 311.650,82.133 312.000,81.790 312.000 C 81.455 312.000,81.009 312.450,80.800 313.000 C 80.591 313.550,80.145 314.000,79.810 314.000 C 79.404 314.000,79.200 314.386,79.200 315.153 C 79.200 315.970,78.967 316.368,78.400 316.516 C 77.921 316.641,77.600 317.062,77.600 317.563 C 77.600 318.133,77.345 318.400,76.800 318.400 C 76.158 318.400,76.000 318.667,76.000 319.753 C 76.000 320.770,75.801 321.159,75.200 321.316 C 74.760 321.431,74.400 321.812,74.400 322.163 C 74.400 322.513,74.040 323.160,73.600 323.600 C 73.160 324.040,72.800 324.739,72.800 325.153 C 72.800 325.570,72.443 326.000,72.000 326.116 C 71.387 326.276,71.200 326.662,71.200 327.763 C 71.200 328.722,71.015 329.200,70.645 329.200 C 70.326 329.200,69.977 329.798,69.826 330.600 C 69.678 331.389,69.325 332.000,69.017 332.000 C 68.691 332.000,68.361 332.646,68.200 333.600 C 68.049 334.496,67.704 335.200,67.416 335.200 C 67.126 335.200,66.791 335.897,66.646 336.800 C 66.486 337.802,66.177 338.400,65.818 338.400 C 65.432 338.400,65.206 338.947,65.123 340.084 C 65.027 341.405,64.818 341.815,64.157 341.984 C 63.580 342.132,63.361 342.452,63.460 343.000 C 63.714 344.401,63.197 346.400,62.582 346.400 C 62.143 346.400,62.000 346.942,62.000 348.600 C 62.000 350.533,61.903 350.800,61.200 350.800 C 60.487 350.800,60.400 351.067,60.400 353.247 C 60.400 355.496,60.336 355.676,59.600 355.484 C 58.847 355.287,58.800 355.472,58.800 358.637 C 58.800 361.733,58.737 362.000,58.000 362.000 C 57.266 362.000,57.200 362.267,57.200 365.217 C 57.200 367.881,57.062 368.581,56.400 369.292 C 55.677 370.068,55.600 370.704,55.600 375.861 C 55.600 381.162,55.543 381.603,54.800 382.000 C 54.037 382.408,54.000 382.838,54.000 391.214 L 54.000 400.000 199.219 400.000 L 344.439 400.000 344.371 395.800 C 344.310 391.979,344.236 391.600,343.552 391.600 C 342.849 391.600,342.800 391.207,342.800 385.620 C 342.800 380.665,342.695 379.581,342.187 379.297 C 341.705 379.027,341.554 378.011,341.475 374.506 C 341.392 370.800,341.250 369.918,340.622 369.224 C 340.012 368.551,339.872 367.780,339.885 365.196 C 339.900 362.330,339.824 362.000,339.151 362.000 C 338.483 362.000,338.400 361.668,338.400 359.014 C 338.400 356.438,338.290 355.969,337.600 355.600 C 336.918 355.235,336.800 354.762,336.800 352.386 C 336.800 349.867,336.723 349.600,336.000 349.600 C 335.289 349.600,335.200 349.333,335.200 347.200 C 335.200 345.067,335.111 344.800,334.400 344.800 C 333.709 344.800,333.600 344.533,333.600 342.849 C 333.600 341.176,332.557 339.030,332.337 340.251 C 332.303 340.443,332.168 339.700,332.037 338.600 C 331.870 337.194,331.622 336.600,331.200 336.600 C 330.768 336.600,330.566 336.068,330.478 334.700 C 330.379 333.148,330.218 332.800,329.602 332.800 C 329.020 332.800,328.820 332.459,328.724 331.300 C 328.630 330.159,328.433 329.813,327.900 329.856 C 327.382 329.897,327.200 329.611,327.200 328.759 C 327.200 328.040,326.899 327.419,326.400 327.107 C 325.914 326.804,325.600 326.174,325.600 325.504 C 325.600 324.793,325.388 324.400,325.005 324.400 C 324.620 324.400,324.319 323.835,324.154 322.800 C 323.961 321.594,323.713 321.200,323.149 321.200 C 322.565 321.200,322.400 320.903,322.400 319.847 C 322.400 318.830,322.201 318.441,321.600 318.284 C 321.141 318.164,320.800 317.738,320.800 317.286 C 320.800 316.853,320.552 316.292,320.248 316.040 C 319.945 315.788,319.589 315.045,319.458 314.388 C 319.324 313.721,318.994 313.239,318.709 313.297 C 318.399 313.360,318.151 312.893,318.075 312.100 C 317.981 311.124,317.756 310.800,317.175 310.800 C 316.615 310.800,316.400 310.522,316.400 309.800 C 316.400 309.067,316.187 308.800,315.600 308.800 C 314.952 308.800,314.800 308.533,314.800 307.400 C 314.800 306.267,314.648 306.000,314.000 306.000 C 313.455 306.000,313.200 305.733,313.200 305.163 C 313.200 304.662,312.879 304.241,312.400 304.116 C 311.896 303.984,311.600 303.570,311.600 302.998 C 311.600 302.382,311.377 302.107,310.910 302.144 C 310.234 302.199,310.152 302.032,310.050 300.400 C 310.018 299.883,309.717 299.600,309.200 299.600 C 308.667 299.600,308.400 299.333,308.400 298.800 C 308.400 298.267,308.133 298.000,307.600 298.000 C 307.067 298.000,306.800 297.733,306.800 297.200 C 306.800 296.735,306.533 296.400,306.163 296.400 C 305.812 296.400,305.431 296.040,305.316 295.600 C 305.201 295.160,304.858 294.800,304.553 294.800 C 304.249 294.800,304.000 294.522,304.000 294.183 C 304.000 293.844,303.623 293.169,303.162 292.683 C 302.700 292.197,302.161 291.384,301.962 290.876 C 301.764 290.368,301.421 290.063,301.201 290.200 C 300.980 290.336,300.800 290.168,300.800 289.827 C 300.800 289.486,300.440 288.982,300.000 288.707 C 299.560 288.432,299.200 287.981,299.200 287.704 C 299.200 287.427,298.861 287.200,298.447 287.200 C 298.030 287.200,297.600 286.843,297.484 286.400 C 297.369 285.960,296.988 285.600,296.637 285.600 C 296.257 285.600,296.000 285.262,296.000 284.763 C 296.000 284.269,295.680 283.841,295.221 283.722 C 294.793 283.610,294.388 283.241,294.321 282.903 C 294.253 282.555,293.690 282.234,293.027 282.163 C 292.382 282.095,291.698 281.760,291.507 281.419 C 291.316 281.079,290.828 280.800,290.423 280.800 C 290.017 280.800,289.582 280.530,289.455 280.200 C 288.657 278.121,286.668 279.404,281.457 285.359 " stroke="none" fill="#b29ef9" fill-rule="evenodd"></path><path id="path3" d="M256.000 107.377 C 247.576 113.683,243.314 120.286,240.752 131.000 C 238.091 142.125,242.983 152.347,253.200 157.012 C 256.445 158.493,268.252 158.843,270.600 157.528 C 271.260 157.158,272.351 156.596,273.024 156.280 C 280.933 152.562,283.243 136.264,277.533 124.474 C 270.688 110.344,261.637 103.157,256.000 107.377 M314.926 248.700 C 314.974 249.675,315.867 249.976,315.867 249.018 C 315.867 248.697,315.732 248.518,315.567 248.620 C 315.403 248.722,315.181 248.579,315.075 248.302 C 314.969 248.026,314.901 248.205,314.926 248.700 M309.600 270.104 C 309.600 270.455,309.285 270.824,308.900 270.924 C 308.244 271.096,308.245 271.110,308.913 271.154 C 309.636 271.201,310.306 270.173,309.849 269.716 C 309.712 269.579,309.600 269.753,309.600 270.104 M306.948 271.392 C 306.610 272.272,306.981 272.546,307.562 271.845 C 307.890 271.451,307.907 271.189,307.617 271.010 C 307.384 270.867,307.083 271.038,306.948 271.392 M303.700 272.665 C 303.425 272.776,303.206 273.167,303.213 273.533 C 303.225 274.153,303.261 274.153,303.728 273.539 C 304.005 273.175,304.674 272.795,305.216 272.693 L 306.200 272.509 305.200 272.486 C 304.650 272.473,303.975 272.554,303.700 272.665 M298.012 274.384 C 297.688 274.589,297.563 274.896,297.733 275.067 C 297.904 275.237,298.172 275.169,298.328 274.916 C 298.485 274.663,299.420 274.384,300.407 274.297 L 302.200 274.140 300.400 274.076 C 299.410 274.041,298.335 274.180,298.012 274.384 M301.913 290.700 C 302.777 292.808,303.999 293.853,303.889 292.390 C 303.852 291.898,303.621 291.660,303.301 291.783 C 302.996 291.900,302.616 291.567,302.397 290.992 C 302.190 290.447,301.931 290.000,301.823 290.000 C 301.714 290.000,301.755 290.315,301.913 290.700 M93.825 298.772 C 93.155 299.513,93.160 299.536,93.963 299.326 C 94.423 299.205,94.800 298.858,94.800 298.553 C 94.800 297.821,94.657 297.854,93.825 298.772 M310.178 301.528 C 310.301 302.369,311.348 302.415,311.507 301.586 C 311.578 301.219,311.315 300.949,310.852 300.914 C 310.338 300.875,310.112 301.081,310.178 301.528 M84.005 307.991 C 83.660 308.636,83.694 308.739,84.188 308.549 C 84.522 308.421,84.705 308.170,84.595 307.992 C 84.485 307.814,84.621 307.577,84.898 307.466 C 85.274 307.314,85.278 307.255,84.914 307.232 C 84.647 307.214,84.238 307.556,84.005 307.991 M318.133 311.806 C 318.133 312.133,318.493 312.400,318.933 312.400 C 319.373 312.400,319.658 312.349,319.567 312.287 C 319.475 312.225,319.115 311.957,318.767 311.693 C 318.258 311.307,318.133 311.329,318.133 311.806 M320.200 316.000 C 320.598 316.440,320.948 316.800,320.976 316.800 C 321.005 316.800,321.029 316.440,321.029 316.000 C 321.029 315.475,320.762 315.200,320.252 315.200 C 319.501 315.200,319.500 315.226,320.200 316.000 M74.400 321.048 C 74.400 321.328,74.730 321.439,75.200 321.316 C 75.640 321.201,76.000 320.959,76.000 320.778 C 76.000 320.598,75.640 320.477,75.200 320.510 C 74.760 320.543,74.400 320.785,74.400 321.048 M324.233 323.200 C 324.530 324.314,324.719 324.614,324.967 324.366 C 325.059 324.274,324.872 323.749,324.551 323.199 L 323.967 322.200 324.233 323.200 M66.800 334.800 C 66.800 335.020,67.070 335.200,67.400 335.200 C 67.730 335.200,68.000 335.020,68.000 334.800 C 68.000 334.580,67.730 334.400,67.400 334.400 C 67.070 334.400,66.800 334.580,66.800 334.800 M330.475 336.026 C 330.568 336.303,330.949 336.575,331.322 336.630 C 332.238 336.764,332.175 336.522,331.154 335.975 C 330.495 335.623,330.345 335.634,330.475 336.026 M333.632 344.100 C 333.611 344.550,333.894 344.800,334.424 344.800 C 334.880 344.800,335.135 344.619,334.996 344.393 C 334.858 344.170,334.593 344.081,334.407 344.196 C 334.221 344.311,333.977 344.179,333.866 343.902 C 333.744 343.599,333.651 343.678,333.632 344.100 M60.600 350.400 C 60.464 350.620,60.723 350.800,61.176 350.800 C 61.629 350.800,62.000 350.620,62.000 350.400 C 62.000 350.180,61.741 350.000,61.424 350.000 C 61.107 350.000,60.736 350.180,60.600 350.400 M336.892 354.875 C 337.091 355.473,338.000 355.802,338.000 355.276 C 338.000 355.061,337.715 354.776,337.367 354.643 C 336.977 354.493,336.794 354.582,336.892 354.875 M59.200 355.200 C 59.200 355.420,59.470 355.600,59.800 355.600 C 60.130 355.600,60.400 355.420,60.400 355.200 C 60.400 354.980,60.130 354.800,59.800 354.800 C 59.470 354.800,59.200 354.980,59.200 355.200 M339.100 360.276 C 338.275 360.491,338.147 362.000,338.953 362.000 C 339.258 362.000,339.593 361.550,339.698 361.000 C 339.803 360.450,339.869 360.021,339.845 360.046 C 339.820 360.072,339.485 360.175,339.100 360.276 M57.855 361.400 C 57.715 361.765,57.855 362.000,58.213 362.000 C 58.536 362.000,58.800 361.730,58.800 361.400 C 58.800 361.070,58.639 360.800,58.443 360.800 C 58.246 360.800,57.982 361.070,57.855 361.400 M56.135 368.675 C 55.993 369.074,55.804 369.535,55.715 369.700 C 55.414 370.256,55.818 370.005,56.495 369.214 C 56.887 368.757,57.007 368.328,56.781 368.189 C 56.569 368.057,56.278 368.276,56.135 368.675 M340.000 368.364 C 340.000 368.550,340.270 368.926,340.600 369.200 C 341.088 369.605,341.200 369.585,341.200 369.092 C 341.200 368.758,340.930 368.382,340.600 368.255 C 340.270 368.129,340.000 368.177,340.000 368.364 M341.600 378.524 C 341.600 378.849,341.883 379.223,342.229 379.356 C 342.668 379.524,342.819 379.396,342.729 378.932 C 342.565 378.085,341.600 377.737,341.600 378.524 M54.129 381.064 C 54.064 382.265,54.134 382.357,54.829 381.985 C 55.791 381.469,55.837 380.155,54.900 379.912 C 54.346 379.768,54.185 380.009,54.129 381.064 M343.000 390.333 C 342.890 390.443,342.800 390.773,342.800 391.067 C 342.800 391.872,343.879 391.706,344.098 390.867 C 344.275 390.191,343.512 389.821,343.000 390.333 " stroke="none" fill="#1ac4db" fill-rule="evenodd"></path><path id="path4" d="M257.507 106.035 C 255.170 106.660,243.600 118.353,243.600 120.090 C 243.600 120.377,243.263 121.240,242.852 122.008 C 242.440 122.776,241.969 124.213,241.805 125.202 C 241.641 126.191,241.357 127.286,241.174 127.635 C 240.370 129.169,239.186 136.508,239.418 138.518 C 239.838 142.154,240.467 144.981,240.994 145.600 C 241.275 145.930,241.639 146.650,241.802 147.200 C 241.966 147.750,242.392 148.508,242.750 148.884 C 243.107 149.261,243.760 150.064,244.200 150.670 C 245.460 152.405,248.456 155.200,249.056 155.200 C 249.355 155.200,249.600 155.389,249.600 155.620 C 249.600 155.852,250.185 156.312,250.900 156.644 C 251.615 156.976,252.650 157.505,253.200 157.818 C 253.750 158.132,255.100 158.370,256.200 158.347 L 258.200 158.306 256.400 157.991 C 245.208 156.037,237.814 143.283,240.752 131.000 C 243.078 121.271,244.874 117.972,251.251 111.712 C 257.171 105.901,259.420 105.207,264.533 107.610 C 269.213 109.810,277.790 122.561,280.189 130.884 C 282.627 139.344,278.344 154.623,273.086 156.225 C 272.599 156.373,271.902 156.756,271.538 157.075 C 271.174 157.394,270.004 157.815,268.938 158.010 L 267.000 158.364 269.349 158.245 C 271.031 158.160,271.803 157.938,272.069 157.463 C 272.273 157.098,272.660 156.800,272.929 156.800 C 273.396 156.800,276.394 154.091,277.553 152.622 C 278.813 151.023,279.925 148.400,280.203 146.367 C 280.366 145.175,280.674 143.750,280.887 143.200 C 282.840 138.159,280.426 127.709,275.389 119.400 C 274.855 118.520,274.242 117.402,274.025 116.916 C 273.809 116.430,273.256 115.620,272.797 115.116 C 272.338 114.612,271.701 113.915,271.381 113.566 C 271.062 113.218,270.796 112.768,270.792 112.566 C 270.725 109.636,261.324 105.014,257.507 106.035 M260.707 158.690 C 261.426 158.779,262.506 158.777,263.107 158.686 C 263.708 158.595,263.120 158.522,261.800 158.524 C 260.480 158.526,259.988 158.601,260.707 158.690 M196.400 174.773 C 182.870 174.932,171.419 175.188,170.952 175.341 C 170.486 175.495,165.806 175.769,160.552 175.950 C 151.903 176.249,150.849 176.361,149.406 177.140 C 148.529 177.613,147.567 178.000,147.268 178.000 C 146.968 178.000,146.246 178.241,145.662 178.535 C 142.061 180.350,135.571 183.082,132.200 184.202 C 131.320 184.494,129.340 185.208,127.800 185.788 C 126.260 186.369,124.370 187.023,123.600 187.243 C 122.116 187.666,120.345 188.416,117.921 189.648 C 117.107 190.062,116.234 190.400,115.981 190.400 C 115.459 190.400,113.987 191.031,109.400 193.221 C 107.640 194.062,105.750 194.940,105.200 195.174 C 104.650 195.407,103.930 195.764,103.600 195.967 C 103.270 196.170,101.830 196.918,100.400 197.628 C 98.970 198.338,97.530 199.058,97.200 199.227 C 88.120 203.872,84.496 205.144,79.200 205.543 C 77.110 205.700,75.175 205.968,74.900 206.138 C 73.894 206.760,74.452 229.674,75.490 230.342 C 75.710 230.484,75.927 232.194,75.971 234.142 C 76.102 239.924,77.600 242.390,77.600 236.824 C 77.600 234.432,77.465 233.600,77.076 233.600 C 76.692 233.600,76.533 232.719,76.482 230.300 C 76.246 219.072,75.844 210.751,75.527 210.555 C 75.315 210.424,75.346 210.106,75.601 209.799 C 75.843 209.507,75.987 208.758,75.921 208.134 L 75.800 207.000 79.983 206.723 C 82.283 206.570,84.983 206.145,85.983 205.777 C 87.551 205.199,97.477 200.552,99.200 199.589 C 99.530 199.404,101.510 198.413,103.600 197.385 C 105.690 196.357,107.670 195.354,108.000 195.155 C 108.330 194.957,108.870 194.683,109.200 194.547 C 109.530 194.410,110.700 193.894,111.800 193.400 C 112.900 192.905,115.960 191.647,118.600 190.603 C 121.240 189.560,123.580 188.563,123.800 188.389 C 124.020 188.214,124.920 187.945,125.800 187.791 C 126.680 187.637,127.799 187.260,128.286 186.955 C 128.773 186.650,129.403 186.394,129.686 186.386 C 129.969 186.379,130.920 186.025,131.800 185.600 C 132.680 185.175,133.637 184.821,133.926 184.814 C 134.477 184.799,137.479 183.649,140.200 182.410 C 152.155 176.966,150.254 177.324,170.000 176.801 C 179.130 176.560,188.940 176.198,191.800 175.998 C 200.894 175.360,235.470 175.496,237.696 176.178 C 238.739 176.498,240.719 176.872,242.096 177.010 C 243.473 177.148,245.050 177.423,245.600 177.621 C 246.150 177.820,249.030 178.253,252.000 178.584 C 257.841 179.234,260.369 179.690,264.400 180.819 C 267.067 181.565,269.485 182.143,273.000 182.873 C 274.100 183.102,275.720 183.533,276.600 183.831 C 277.480 184.129,279.010 184.482,280.000 184.614 C 280.990 184.747,282.520 185.104,283.400 185.409 C 289.918 187.662,304.510 187.774,310.645 185.618 C 315.652 183.858,316.239 184.503,316.450 192.000 C 316.490 193.430,316.689 195.050,316.892 195.600 C 317.194 196.419,317.732 204.443,318.064 213.079 C 318.101 214.041,318.314 214.724,318.564 214.679 C 319.483 214.513,319.344 223.607,318.414 224.473 C 317.766 225.077,317.588 225.778,317.543 227.916 C 317.512 229.392,317.476 230.986,317.464 231.457 C 317.451 231.937,317.237 232.236,316.976 232.136 C 316.488 231.948,316.012 233.985,316.004 236.300 C 316.002 237.142,315.804 237.600,315.443 237.600 C 314.801 237.600,314.400 238.451,314.400 239.813 C 314.400 240.334,314.144 240.904,313.832 241.080 C 312.878 241.617,312.651 243.380,313.451 244.030 C 313.837 244.343,314.035 244.402,313.890 244.159 C 313.744 243.916,313.884 243.376,314.200 242.959 C 314.516 242.542,314.780 241.717,314.787 241.127 C 314.796 240.412,315.067 239.969,315.600 239.800 C 316.218 239.604,316.400 239.195,316.400 238.002 C 316.400 237.152,316.648 236.209,316.952 235.905 C 317.536 235.321,318.216 232.301,318.042 231.066 C 317.985 230.662,318.267 229.968,318.669 229.524 C 320.085 227.960,319.860 197.303,318.426 196.416 C 318.213 196.284,318.010 193.852,317.975 191.011 C 317.916 186.098,317.492 183.772,316.742 184.236 C 316.554 184.352,316.400 184.230,316.400 183.966 C 316.400 183.290,311.521 183.736,309.197 184.624 C 305.558 186.015,289.969 186.231,286.808 184.935 C 286.042 184.621,284.422 184.214,283.208 184.031 C 280.761 183.663,276.760 182.699,274.000 181.815 C 273.010 181.497,271.300 181.116,270.200 180.967 C 269.100 180.818,267.748 180.467,267.195 180.187 C 266.642 179.907,265.292 179.552,264.195 179.399 C 263.098 179.245,261.480 178.891,260.600 178.612 C 259.720 178.333,257.594 177.982,255.877 177.833 C 254.159 177.684,252.282 177.383,251.706 177.164 C 251.131 176.945,248.757 176.586,246.432 176.366 C 244.107 176.146,241.429 175.702,240.481 175.380 C 238.104 174.573,226.700 174.416,196.400 174.773 M247.117 215.034 C 244.321 215.324,241.495 215.841,240.837 216.181 C 240.178 216.521,239.259 216.800,238.794 216.800 C 237.954 216.800,237.151 217.087,231.000 219.587 C 229.240 220.302,227.080 221.078,226.200 221.312 C 225.320 221.547,224.150 222.039,223.600 222.407 C 223.050 222.774,221.797 223.598,220.816 224.237 C 218.955 225.450,216.832 227.534,216.812 228.169 C 216.805 228.371,216.485 228.885,216.100 229.310 C 214.834 230.710,215.120 235.433,216.587 237.351 C 219.694 241.413,223.943 241.283,228.446 236.989 C 229.708 235.785,230.982 234.800,231.276 234.800 C 231.571 234.800,232.484 234.440,233.304 234.000 C 234.125 233.560,235.023 233.194,235.299 233.186 C 235.574 233.179,236.520 232.825,237.400 232.400 C 238.280 231.975,239.243 231.621,239.540 231.614 C 239.836 231.606,240.646 231.340,241.340 231.022 C 242.821 230.342,249.247 228.800,250.598 228.800 C 253.141 228.800,256.266 230.964,258.307 234.137 C 262.964 241.377,272.400 239.745,272.400 231.700 C 272.400 225.194,259.320 213.745,252.694 214.453 C 252.422 214.482,249.913 214.743,247.117 215.034 M257.803 217.057 C 262.062 219.313,265.203 221.659,266.960 223.899 C 267.953 225.165,268.998 226.476,269.283 226.813 C 272.802 230.987,270.799 237.234,265.907 237.342 C 262.792 237.410,261.946 237.024,260.400 234.827 C 259.630 233.733,258.865 232.829,258.700 232.819 C 258.535 232.808,258.400 232.574,258.400 232.299 C 258.400 231.672,256.657 230.038,254.753 228.880 C 253.110 227.881,246.700 227.597,245.101 228.453 C 244.635 228.702,243.342 229.139,242.227 229.424 C 239.887 230.022,236.063 231.337,234.958 231.923 C 234.541 232.144,233.030 232.818,231.600 233.420 C 229.942 234.119,228.287 235.223,227.034 236.467 C 225.953 237.540,224.637 238.526,224.110 238.658 C 222.772 238.994,219.456 238.569,219.280 238.039 C 219.199 237.798,218.896 237.600,218.606 237.600 C 217.807 237.600,216.400 234.929,216.400 233.410 C 216.400 230.189,218.995 226.596,222.900 224.411 C 224.165 223.703,225.301 222.961,225.424 222.762 C 225.547 222.563,226.049 222.400,226.539 222.400 C 227.030 222.400,228.137 222.040,229.000 221.600 C 229.863 221.160,230.846 220.799,231.185 220.798 C 231.523 220.796,232.327 220.520,232.971 220.184 C 234.908 219.174,240.883 217.322,245.200 216.393 C 248.924 215.592,255.711 215.950,257.803 217.057 M148.713 217.558 C 147.456 217.969,145.635 218.424,144.667 218.569 C 143.700 218.714,142.569 219.090,142.154 219.404 C 141.739 219.718,141.130 219.986,140.800 220.001 C 140.470 220.015,139.480 220.375,138.600 220.800 C 137.720 221.225,136.873 221.579,136.718 221.586 C 135.511 221.644,129.200 227.557,129.200 228.630 C 129.200 228.876,128.916 229.646,128.569 230.342 C 127.452 232.581,128.687 235.700,131.563 237.900 C 134.517 240.160,138.783 239.456,141.461 236.267 C 144.046 233.190,151.865 230.907,158.563 231.275 L 161.400 231.430 166.200 236.111 C 172.710 242.460,176.106 243.280,179.846 239.404 C 183.336 235.788,182.384 230.865,177.358 226.542 C 176.116 225.474,174.254 223.790,173.220 222.800 C 170.144 219.855,168.308 218.400,167.667 218.400 C 167.335 218.400,166.715 218.085,166.290 217.700 C 165.083 216.606,151.953 216.500,148.713 217.558 M165.000 218.668 C 166.100 219.073,167.445 219.719,167.989 220.103 C 168.533 220.486,169.124 220.800,169.301 220.800 C 169.479 220.800,170.294 221.528,171.112 222.419 C 171.931 223.309,174.016 225.244,175.746 226.719 C 178.982 229.477,180.800 232.349,180.800 234.703 C 180.800 235.681,179.357 238.465,178.710 238.736 C 178.532 238.810,178.097 239.160,177.743 239.514 C 177.354 239.903,176.185 240.222,174.775 240.324 L 172.449 240.493 169.725 237.691 C 168.226 236.149,165.702 233.699,164.116 232.244 L 161.232 229.600 157.866 229.600 C 156.015 229.600,153.799 229.847,152.942 230.150 C 152.085 230.452,150.449 230.828,149.307 230.985 C 148.165 231.142,146.555 231.615,145.730 232.035 C 144.906 232.456,144.009 232.800,143.738 232.800 C 143.467 232.800,142.156 233.809,140.824 235.042 C 135.267 240.187,129.445 237.927,129.955 230.823 C 130.122 228.493,134.242 224.045,137.600 222.567 C 143.100 220.149,148.150 218.744,154.600 217.839 C 157.177 217.477,163.038 217.944,165.000 218.668 M77.600 243.214 C 77.600 243.840,77.783 244.466,78.007 244.604 C 78.230 244.742,78.321 245.004,78.209 245.186 C 78.096 245.367,78.274 245.619,78.602 245.746 C 79.076 245.927,79.200 245.614,79.200 244.234 C 79.200 242.830,79.045 242.453,78.400 242.284 C 77.738 242.111,77.600 242.272,77.600 243.214 M313.200 245.751 C 313.200 246.150,313.534 246.400,314.067 246.400 C 314.543 246.400,314.858 246.349,314.767 246.287 C 314.675 246.225,314.285 245.933,313.900 245.638 C 313.301 245.179,313.200 245.196,313.200 245.751 M79.200 247.951 C 79.200 248.584,79.470 249.326,79.800 249.600 C 80.130 249.874,80.400 250.609,80.400 251.233 C 80.400 251.858,80.736 252.691,81.147 253.084 C 81.558 253.478,82.112 254.475,82.378 255.300 C 82.644 256.125,83.005 256.800,83.180 256.800 C 83.355 256.800,83.613 257.520,83.754 258.400 C 83.907 259.357,84.228 260.000,84.554 260.000 C 84.879 260.000,85.201 260.643,85.354 261.600 C 85.519 262.635,85.820 263.200,86.205 263.200 C 86.616 263.200,86.800 263.624,86.800 264.571 C 86.800 265.326,87.077 266.220,87.417 266.560 C 87.756 266.899,88.223 267.722,88.456 268.388 C 88.688 269.055,89.108 269.600,89.388 269.600 C 89.671 269.600,90.008 270.292,90.147 271.156 C 90.283 272.012,90.667 272.817,90.998 272.944 C 91.329 273.071,91.600 273.647,91.600 274.225 C 91.600 274.938,91.856 275.342,92.400 275.484 C 92.997 275.640,93.200 276.030,93.200 277.020 C 93.200 277.995,93.412 278.413,94.000 278.600 C 94.440 278.740,94.800 279.074,94.800 279.342 C 94.800 280.021,96.300 282.914,96.903 283.400 C 97.176 283.620,97.650 284.285,97.955 284.877 C 98.261 285.469,99.208 286.729,100.061 287.677 C 102.069 289.909,102.190 290.069,102.508 290.900 C 102.893 291.910,103.799 291.760,104.327 290.600 C 104.594 290.014,104.624 289.600,104.400 289.600 C 103.846 289.600,99.600 285.488,99.600 284.951 C 99.600 284.702,99.311 284.258,98.958 283.965 C 98.605 283.673,98.160 283.020,97.968 282.516 C 97.777 282.012,97.345 281.600,97.010 281.600 C 96.674 281.600,96.400 281.253,96.400 280.829 C 96.400 280.404,96.152 279.809,95.849 279.506 C 95.546 279.203,95.175 278.395,95.024 277.711 C 94.874 277.027,94.502 276.371,94.198 276.254 C 93.893 276.138,93.527 275.415,93.383 274.649 C 93.239 273.882,92.886 273.165,92.598 273.055 C 92.311 272.944,91.954 272.302,91.806 271.627 C 91.658 270.952,91.301 270.400,91.013 270.400 C 90.725 270.400,90.374 269.787,90.234 269.039 C 90.093 268.290,89.713 267.576,89.389 267.451 C 89.065 267.327,88.800 266.874,88.800 266.445 C 88.800 265.241,88.371 264.400,87.757 264.400 C 87.392 264.400,87.200 263.939,87.200 263.061 C 87.200 262.297,86.857 261.327,86.400 260.800 C 85.960 260.293,85.600 259.528,85.600 259.101 C 85.600 258.662,85.253 258.234,84.800 258.116 C 84.201 257.959,84.000 257.570,84.000 256.567 C 84.000 255.638,83.755 255.097,83.200 254.800 C 82.639 254.500,82.400 253.962,82.400 253.000 C 82.400 252.038,82.161 251.500,81.600 251.200 C 80.988 250.872,80.800 250.362,80.800 249.029 C 80.800 247.808,80.610 247.213,80.167 247.043 C 79.225 246.681,79.200 246.705,79.200 247.951 M316.400 255.947 C 316.400 259.317,316.500 260.060,316.900 259.660 C 317.664 258.896,317.729 251.733,316.972 251.733 C 316.512 251.733,316.400 252.560,316.400 255.947 M314.800 264.000 C 314.800 264.949,315.809 265.074,316.157 264.167 C 316.509 263.250,316.481 263.200,315.600 263.200 C 315.067 263.200,314.800 263.467,314.800 264.000 M313.200 266.776 C 313.200 267.447,313.909 267.613,314.146 266.998 C 314.285 266.635,314.144 266.400,313.787 266.400 C 313.464 266.400,313.200 266.569,313.200 266.776 M311.600 268.600 C 311.600 268.930,311.851 269.200,312.157 269.200 C 312.464 269.200,312.818 268.930,312.945 268.600 C 313.101 268.192,312.923 268.000,312.387 268.000 C 311.954 268.000,311.600 268.270,311.600 268.600 M307.019 272.235 C 306.190 272.841,306.521 272.931,307.773 272.441 C 308.199 272.274,308.377 272.033,308.169 271.904 C 307.961 271.776,307.444 271.925,307.019 272.235 M304.000 273.400 C 304.000 273.730,304.270 274.000,304.600 274.000 C 304.930 274.000,305.200 273.730,305.200 273.400 C 305.200 273.070,304.930 272.800,304.600 272.800 C 304.270 272.800,304.000 273.070,304.000 273.400 M298.584 274.827 C 298.439 275.061,298.414 275.348,298.530 275.463 C 298.844 275.777,300.400 275.203,300.400 274.773 C 300.400 274.258,298.908 274.302,298.584 274.827 M291.484 276.400 C 291.220 277.408,292.815 277.528,293.771 276.571 C 294.650 275.693,294.581 275.600,293.047 275.600 C 292.030 275.600,291.641 275.799,291.484 276.400 M287.843 277.833 C 287.414 278.950,287.578 279.220,288.576 279.039 C 289.342 278.900,289.579 279.049,289.676 279.731 C 289.754 280.279,290.133 280.647,290.700 280.728 C 291.195 280.798,291.600 281.004,291.600 281.185 C 291.600 281.366,291.870 281.618,292.200 281.745 C 292.552 281.880,292.800 281.750,292.800 281.431 C 292.800 281.132,292.329 280.768,291.753 280.624 C 291.177 280.479,290.816 280.251,290.950 280.116 C 291.085 279.982,290.836 279.620,290.397 279.313 C 289.959 279.006,289.600 278.405,289.600 277.977 C 289.600 277.024,288.197 276.909,287.843 277.833 M242.575 283.580 C 241.681 283.978,240.241 284.954,239.375 285.750 C 238.509 286.545,237.620 287.198,237.400 287.201 C 237.180 287.203,236.460 287.488,235.800 287.834 C 234.173 288.688,225.805 289.891,219.102 290.234 L 213.604 290.516 212.302 289.148 C 205.855 282.376,195.871 289.121,200.960 296.811 C 204.741 302.525,207.105 303.405,218.600 303.380 C 234.727 303.344,242.902 301.062,249.243 294.825 C 254.625 289.531,249.317 280.578,242.575 283.580 M248.800 285.895 C 250.523 287.611,250.289 292.328,248.400 293.958 C 247.630 294.622,246.730 295.407,246.400 295.702 C 241.825 299.794,236.518 301.030,216.800 302.594 C 209.362 303.184,203.151 299.822,201.401 294.260 L 200.737 292.147 201.891 290.174 C 204.002 286.566,208.049 286.344,211.098 289.668 L 212.600 291.307 221.660 291.077 C 230.871 290.844,235.355 290.127,237.200 288.593 C 237.530 288.319,238.173 287.981,238.628 287.843 C 239.084 287.705,240.031 287.030,240.732 286.344 C 242.944 284.182,246.860 283.964,248.800 285.895 M101.033 292.257 C 100.652 293.250,101.072 293.386,101.582 292.434 C 101.827 291.975,101.861 291.600,101.657 291.600 C 101.453 291.600,101.172 291.896,101.033 292.257 M305.028 294.770 C 306.041 296.301,307.200 297.164,307.200 296.387 C 307.200 296.174,307.020 296.000,306.800 296.000 C 306.580 296.000,306.400 295.730,306.400 295.400 C 306.400 295.070,306.130 294.800,305.800 294.800 C 305.467 294.800,305.200 294.444,305.200 294.000 C 305.200 293.552,304.933 293.200,304.594 293.200 C 304.127 293.200,304.226 293.559,305.028 294.770 M95.495 296.277 C 95.107 296.378,94.893 296.626,95.018 296.829 C 95.143 297.031,94.785 297.406,94.223 297.663 C 93.660 297.919,93.200 298.370,93.200 298.664 C 93.200 298.959,92.941 299.200,92.624 299.200 C 92.307 299.200,91.937 299.378,91.803 299.595 C 91.357 300.317,92.973 299.488,93.881 298.530 C 94.365 298.018,94.997 297.600,95.285 297.600 C 95.572 297.600,96.032 297.240,96.307 296.800 C 96.814 295.989,96.752 295.949,95.495 296.277 M311.600 303.186 C 311.600 303.733,311.862 304.000,312.400 304.000 C 312.840 304.000,313.200 303.826,313.200 303.614 C 313.200 303.402,312.840 303.035,312.400 302.800 C 311.722 302.437,311.600 302.496,311.600 303.186 M315.275 307.625 C 315.371 307.914,315.686 308.229,315.975 308.325 C 316.275 308.425,316.425 308.275,316.325 307.975 C 316.229 307.686,315.914 307.371,315.625 307.275 C 315.325 307.175,315.175 307.325,315.275 307.625 M82.667 309.067 C 82.179 309.554,82.391 310.400,83.000 310.400 C 83.333 310.400,83.600 310.044,83.600 309.600 C 83.600 308.803,83.174 308.560,82.667 309.067 M316.400 309.813 C 316.400 310.460,317.025 310.607,317.374 310.042 C 317.496 309.845,317.326 309.581,316.998 309.454 C 316.635 309.315,316.400 309.456,316.400 309.813 M76.388 317.414 C 76.112 317.747,75.976 318.109,76.086 318.219 C 76.368 318.502,77.600 317.982,77.600 317.581 C 77.600 316.920,76.880 316.821,76.388 317.414 M321.200 317.367 C 321.200 317.715,321.386 318.000,321.613 318.000 C 321.840 318.000,322.189 318.405,322.388 318.900 C 322.620 319.477,322.758 319.573,322.775 319.167 C 322.789 318.818,322.665 318.398,322.500 318.233 C 322.335 318.068,322.200 317.738,322.200 317.500 C 322.200 317.262,321.975 316.992,321.700 316.900 C 321.425 316.808,321.200 317.018,321.200 317.367 M323.056 319.878 C 322.557 320.377,322.811 321.109,323.549 321.303 C 324.127 321.454,324.253 321.326,324.101 320.743 C 323.874 319.876,323.427 319.506,323.056 319.878 M73.462 322.331 C 72.588 323.297,72.627 323.570,73.600 323.316 C 74.043 323.200,74.400 322.770,74.400 322.353 C 74.400 321.418,74.291 321.415,73.462 322.331 M324.400 322.951 C 324.400 323.034,324.670 323.326,325.000 323.600 C 325.491 324.008,325.600 323.980,325.600 323.449 C 325.600 323.092,325.330 322.800,325.000 322.800 C 324.670 322.800,324.400 322.868,324.400 322.951 M71.700 324.665 C 70.897 324.989,71.125 326.000,72.000 326.000 C 72.533 326.000,72.800 325.733,72.800 325.200 C 72.800 324.392,72.608 324.298,71.700 324.665 M69.632 328.500 C 69.649 328.995,69.754 329.175,69.865 328.900 C 69.976 328.625,70.322 328.400,70.633 328.400 C 70.945 328.400,71.200 328.220,71.200 328.000 C 71.200 327.780,70.840 327.600,70.400 327.600 C 69.828 327.600,69.609 327.856,69.632 328.500 M68.464 330.496 C 67.719 331.241,67.913 331.948,68.800 331.716 C 69.607 331.505,69.885 330.623,69.264 330.240 C 69.079 330.125,68.719 330.241,68.464 330.496 M328.800 331.739 C 328.800 332.051,329.160 332.401,329.600 332.516 C 330.040 332.631,330.400 332.568,330.400 332.377 C 330.400 332.185,330.040 331.835,329.600 331.600 C 328.975 331.265,328.800 331.296,328.800 331.739 M67.029 333.829 C 66.683 334.174,66.425 334.849,66.454 335.329 C 66.508 336.193,66.510 336.192,66.682 335.300 C 66.778 334.805,67.113 334.400,67.428 334.400 C 67.743 334.400,68.000 334.130,68.000 333.800 C 68.000 333.040,67.812 333.045,67.029 333.829 M330.413 334.604 C 330.406 335.046,330.760 335.632,331.200 335.907 C 332.221 336.545,332.228 335.962,331.213 334.744 C 330.470 333.852,330.426 333.845,330.413 334.604 M64.970 338.219 C 64.824 338.999,64.816 339.749,64.952 339.885 C 65.088 340.022,65.200 339.673,65.200 339.109 C 65.200 338.546,65.470 337.982,65.800 337.855 C 66.568 337.561,66.581 336.800,65.818 336.800 C 65.468 336.800,65.130 337.366,64.970 338.219 M332.000 338.976 C 332.000 339.577,332.718 340.215,333.036 339.897 C 333.315 339.618,332.763 338.400,332.357 338.400 C 332.161 338.400,332.000 338.659,332.000 338.976 M63.730 340.663 C 63.875 340.808,63.804 341.154,63.574 341.432 C 63.253 341.818,63.347 341.887,63.977 341.722 C 64.960 341.465,65.085 340.400,64.133 340.400 C 63.767 340.400,63.585 340.518,63.730 340.663 M333.765 343.043 C 333.817 343.399,334.177 343.868,334.565 344.085 C 335.184 344.431,335.217 344.379,334.833 343.662 C 334.256 342.583,333.646 342.230,333.765 343.043 M62.769 343.300 C 62.753 343.355,62.680 343.670,62.608 344.000 C 62.536 344.330,62.350 344.917,62.194 345.305 C 61.977 345.843,62.062 345.951,62.555 345.762 C 62.943 345.613,63.200 345.052,63.200 344.357 C 63.200 343.440,62.930 342.776,62.769 343.300 M335.461 347.073 C 335.317 347.216,335.200 347.783,335.200 348.333 C 335.200 348.883,335.318 349.215,335.463 349.070 C 335.608 348.925,335.968 349.007,336.263 349.252 C 336.962 349.832,336.961 349.202,336.261 347.852 C 335.964 347.280,335.604 346.929,335.461 347.073 M61.062 348.731 C 60.164 349.724,60.228 350.370,61.200 350.116 C 61.718 349.981,62.000 349.570,62.000 348.953 C 62.000 347.808,61.916 347.788,61.062 348.731 M59.550 352.576 C 59.523 352.699,59.477 352.965,59.450 353.167 C 59.423 353.368,59.265 353.668,59.100 353.833 C 58.490 354.443,58.804 355.124,59.600 354.916 C 60.448 354.694,60.732 353.052,60.000 352.600 C 59.780 352.464,59.578 352.453,59.550 352.576 M336.800 353.570 C 336.800 353.979,337.058 354.413,337.373 354.534 C 337.758 354.682,337.928 354.501,337.889 353.988 C 337.813 352.975,336.800 352.586,336.800 353.570 M57.900 358.786 C 57.515 359.239,57.200 360.147,57.200 360.805 L 57.200 362.000 58.024 361.176 C 58.572 360.628,58.806 359.953,58.724 359.157 C 58.601 357.970,58.596 357.967,57.900 358.786 M338.400 359.413 C 338.400 360.024,338.629 360.400,339.000 360.400 C 339.330 360.400,339.600 360.059,339.600 359.643 C 339.600 359.226,339.330 358.782,339.000 358.655 C 338.567 358.489,338.400 358.699,338.400 359.413 M56.300 365.697 C 55.591 366.786,55.351 368.405,55.900 368.394 C 56.815 368.375,57.245 367.596,57.128 366.170 L 57.000 364.621 56.300 365.697 M340.000 366.508 C 340.000 367.395,340.224 368.000,340.606 368.147 C 341.374 368.441,341.294 366.176,340.513 365.528 C 340.112 365.195,340.000 365.409,340.000 366.508 M341.600 375.929 C 341.600 377.347,341.776 377.982,342.216 378.151 C 343.003 378.453,342.921 375.285,342.120 374.471 C 341.692 374.037,341.600 374.295,341.600 375.929 M54.830 374.779 C 54.232 375.151,53.738 379.605,54.296 379.594 C 55.309 379.573,55.637 378.794,55.522 376.675 C 55.423 374.846,55.293 374.491,54.830 374.779 M342.839 387.347 C 342.763 390.222,342.792 390.327,343.617 390.111 C 344.506 389.879,344.509 389.835,343.863 386.072 C 343.471 383.785,342.915 384.477,342.839 387.347 M53.594 393.500 C 53.591 394.325,53.456 394.793,53.294 394.539 C 53.132 394.286,52.964 395.411,52.920 397.039 C 52.857 399.395,52.959 400.000,53.420 400.000 C 53.888 400.000,54.000 399.226,54.000 396.000 C 54.000 393.800,53.910 392.000,53.800 392.000 C 53.690 392.000,53.597 392.675,53.594 393.500 " stroke="none" fill="#44280d" fill-rule="evenodd"></path></g></svg>